<?xml version="1.0" encoding="iso-8859-1"?>
<!-- Generator: Adobe Illustrator 28.3.0, SVG Export Plug-In . SVG Version: 6.00 Build 0)  -->
<svg version="1.1" id="Layer_1" xmlns="http://www.w3.org/2000/svg" xmlns:xlink="http://www.w3.org/1999/xlink" x="0px" y="0px"
	 width="90px" height="72px" viewBox="0 0 90 72" enable-background="new 0 0 90 72" xml:space="preserve">
<g>
	<path d="M63.068,60.443c0.129-0.064,0.233-0.152,0.312-0.262s0.135-0.236,0.169-0.381c0.033-0.143,0.051-0.299,0.051-0.465
		c0-0.182-0.029-0.333-0.086-0.453c-0.058-0.12-0.131-0.215-0.22-0.285c-0.09-0.07-0.191-0.121-0.306-0.15s-0.229-0.043-0.343-0.043
		c-0.073,0.002-0.142,0.012-0.206,0.025c-0.064,0.016-0.12,0.049-0.167,0.1s-0.085,0.126-0.112,0.225
		c-0.028,0.098-0.042,0.232-0.042,0.406v1.396l0.471-0.013C62.78,60.54,62.939,60.507,63.068,60.443z"/>
	<path d="M38.923,40.294c-0.426,0.193-0.782,0.483-1.039,0.865c-0.852,1.267-1.42,2.613-1.157,4.197
		c0.199,1.196,0.582,2.32,1.215,3.353c0.123,0.201,0.299,0.377,0.478,0.534c0.08,0.07,0.229,0.098,0.341,0.087
		c0.157-0.015,0.309-0.085,0.481-0.136c-0.038-2.985-0.076-5.971-0.114-8.982C39.041,40.246,38.981,40.267,38.923,40.294z"/>
	<path d="M40.01,58.853c-0.064-0.098-0.138-0.176-0.222-0.236c-0.083-0.061-0.17-0.105-0.259-0.137
		c-0.09-0.031-0.179-0.051-0.269-0.061c-0.089-0.011-0.172-0.016-0.248-0.016c-0.097,0-0.183,0.007-0.257,0.021
		c-0.075,0.015-0.138,0.047-0.189,0.097s-0.091,0.122-0.118,0.216c-0.028,0.094-0.042,0.219-0.042,0.377v2.026
		c0.064,0.006,0.13,0.012,0.198,0.018s0.136,0.009,0.207,0.009c0.246,0,0.458-0.031,0.637-0.094
		c0.179-0.063,0.325-0.156,0.439-0.279s0.198-0.274,0.252-0.453s0.082-0.383,0.082-0.611c0-0.199-0.019-0.37-0.057-0.514
		S40.074,58.952,40.01,58.853z"/>
	<path d="M63.646,61.417c-0.11-0.084-0.234-0.145-0.374-0.18c-0.139-0.035-0.28-0.053-0.424-0.053c-0.284,0-0.527,0.003-0.729,0.009
		v1.464c0,0.082-0.001,0.162-0.002,0.238c-0.002,0.078-0.004,0.152-0.007,0.223s-0.007,0.135-0.011,0.191
		c-0.005,0.057-0.01,0.104-0.016,0.143c0.158,0,0.31,0,0.453-0.002s0.285-0.006,0.426-0.012c0.182-0.008,0.339-0.043,0.471-0.104
		c0.132-0.059,0.24-0.141,0.325-0.243s0.147-0.224,0.188-0.362s0.062-0.293,0.062-0.459c0-0.205-0.033-0.377-0.099-0.518
		C63.844,61.614,63.756,61.503,63.646,61.417z"/>
	<path d="M49.38,25.511c0.301,0.264,0.393,0.264,0.661-0.038c0.285-0.321,0.55-0.66,0.808-1.003c0.278-0.37,0.408-0.796,0.409-1.334
		c0.009-0.312-0.099-0.671-0.261-1.017c-0.241-0.513-0.65-0.891-1.042-1.281c-0.196-0.195-0.241-0.199-0.418,0.013
		c-0.342,0.41-0.691,0.816-1.002,1.249c-0.581,0.81-0.554,1.896,0.071,2.672C48.827,25.047,49.111,25.276,49.38,25.511z"/>
	<path d="M0,0v72h90V0H0z M51.558,11.62c0.061-0.076,0.131-0.104,0.215-0.025c0.458,0.431,0.904,0.869,1.016,1.529
		c0.018,0.109,0.026,0.219,0.039,0.328c-0.009,0.364-0.112,0.695-0.335,0.982c-0.212,0.271-0.433,0.535-0.657,0.797
		c-0.074,0.087-0.179,0.153-0.292,0.07c-0.454-0.333-0.896-0.68-1.041-1.267c-0.111-0.448-0.087-0.895,0.168-1.28
		C50.934,12.355,51.259,11.996,51.558,11.62z M49.184,8.402c0.162-0.21,0.335-0.411,0.519-0.636c0.429,0.381,0.784,0.75,0.771,1.336
		c-0.008,0.368-0.221,0.629-0.433,0.893c-0.307,0.383-0.309,0.381-0.675,0.07C48.827,9.606,48.754,8.961,49.184,8.402z
		 M46.852,13.194c0.238-0.34,0.52-0.65,0.778-0.976c0.103-0.13,0.194-0.14,0.317-0.019c0.446,0.436,0.875,0.88,0.97,1.537
		c0.013,0.09,0.02,0.181,0.029,0.271c0.013,0.005,0.026,0.01,0.039,0.015c-0.079,0.251-0.111,0.532-0.247,0.748
		c-0.226,0.361-0.515,0.683-0.783,1.017c-0.093,0.116-0.223,0.151-0.342,0.044c-0.251-0.225-0.525-0.436-0.729-0.699
		C46.452,14.576,46.445,13.775,46.852,13.194z M47.279,19.29c0.683-0.926,1.439-1.799,2.182-2.679
		c0.292-0.346,0.372-0.344,0.689-0.02c0.578,0.59,1.167,1.175,1.688,1.814c0.768,0.942,1.125,2.054,1.17,3.124
		c-0.019,1.177-0.309,2.122-0.951,2.939c-0.551,0.701-1.123,1.384-1.688,2.074c-0.053,0.065-0.12,0.119-0.184,0.174
		c-0.334,0.291-0.517,0.327-0.865,0.061c-0.698-0.533-1.385-1.082-1.942-1.774C46.034,23.334,46.082,20.914,47.279,19.29z
		 M46.557,31.259c0.937-0.777,1.876-1.552,2.816-2.325c0.1-0.082,0.214-0.149,0.325-0.216c0.264-0.16,0.394-0.155,0.634,0.045
		c0.119,0.099,0.235,0.21,0.324,0.335c0.762,1.075,1.364,2.232,1.686,3.514c0.085,0.337,0.052,0.704,0.075,1.076
		c-1.793,0-3.519,0-5.261,0c-0.068-0.376,0.022-0.789-0.238-1.121c-0.24-0.307-0.482-0.612-0.751-0.954
		C46.29,31.5,46.419,31.374,46.557,31.259z M52.344,34.449c-0.018,0.361-0.036,0.71-0.055,1.09c-1.678,0.073-3.35,0.145-5.044,0.218
		c-0.023-0.443-0.045-0.869-0.068-1.308C48.899,34.449,50.608,34.449,52.344,34.449z M16.985,63.531
		c-0.24,0.188-0.479,0.333-0.716,0.437c-0.237,0.105-0.467,0.175-0.69,0.211c-0.223,0.037-0.426,0.056-0.611,0.056
		c-0.466,0-0.889-0.083-1.268-0.249c-0.38-0.164-0.704-0.392-0.974-0.68c-0.27-0.289-0.478-0.629-0.624-1.018
		c-0.146-0.391-0.22-0.809-0.22-1.258c0-0.271,0.029-0.545,0.088-0.818c0.059-0.274,0.146-0.537,0.262-0.787
		c0.115-0.25,0.261-0.484,0.437-0.701s0.38-0.406,0.613-0.566c0.233-0.162,0.495-0.287,0.787-0.379
		c0.291-0.09,0.611-0.136,0.96-0.136c0.117,0,0.241,0.01,0.371,0.028c0.13,0.02,0.263,0.048,0.398,0.086s0.268,0.084,0.4,0.139
		s0.258,0.117,0.378,0.191h0.009l-0.031-0.383h0.694v2.105h-0.589c-0.082-0.502-0.248-0.879-0.497-1.133
		c-0.249-0.252-0.587-0.379-1.015-0.379c-0.313,0-0.586,0.071-0.82,0.215c-0.232,0.144-0.425,0.334-0.578,0.571
		s-0.266,0.509-0.34,0.815c-0.075,0.307-0.112,0.621-0.112,0.947c0,0.389,0.042,0.746,0.125,1.072
		c0.084,0.324,0.205,0.605,0.365,0.842c0.159,0.235,0.356,0.418,0.591,0.549s0.504,0.195,0.809,0.195
		c0.188,0,0.376-0.025,0.567-0.074c0.19-0.051,0.375-0.123,0.554-0.219c0.179-0.094,0.348-0.211,0.507-0.349
		s0.303-0.293,0.429-0.466l0.431,0.396C17.455,63.098,17.225,63.344,16.985,63.531z M16.758,51.485
		c-0.598-0.383-1.192-0.771-1.781-1.168c-0.126-0.085-0.204-0.073-0.293,0.036c-0.498,0.611-0.991,1.226-1.499,1.828
		c-0.264,0.313-0.552,0.606-0.839,0.899c-0.051,0.052-0.145,0.084-0.221,0.086c-0.326,0.009-0.652,0.004-0.978,0.004
		c-0.256,0-0.437-0.287-0.32-0.521c0.061-0.121,0.14-0.235,0.222-0.344c0.538-0.712,1.096-1.41,1.611-2.138
		c0.253-0.358,0.43-0.769,0.635-1.16c0.063-0.121,0.026-0.226-0.06-0.338c-1.407-1.831-2.294-3.896-2.71-6.16
		c-0.29-1.578-0.359-3.171-0.189-4.768c0.251-2.371,1.104-4.515,2.495-6.445c1.147-1.592,2.506-2.964,4.219-3.953
		c1.554-0.897,3.231-1.348,5.024-1.407c1.187-0.039,2.315,0.206,3.419,0.608c1.045,0.381,2.092,0.759,3.134,1.149
		c0.224,0.084,0.43,0.075,0.643-0.009c0.509-0.2,0.904-0.559,1.298-0.922c0.153-0.14,0.318-0.269,0.485-0.391
		c0.128-0.094,0.28-0.097,0.401,0.003c0.163,0.136,0.323,0.283,0.451,0.451c0.054,0.071,0.062,0.221,0.026,0.31
		c-0.096,0.24-0.198,0.487-0.347,0.696c-0.819,1.151-1.631,2.309-2.487,3.433c-2.006,2.632-4.039,5.244-6.056,7.869
		c-1.271,1.653-2.512,3.329-3.806,4.964c-0.549,0.693-0.772,1.41-0.618,2.282c0.307,1.747,1.14,3.172,2.586,4.192
		c1.628,1.148,4.093,1.097,5.669-0.949c0.805-1.045,1.249-2.214,1.26-3.564c0.397-0.001,0.755-0.026,1.12,0.192
		c0.454,0.271,0.969,0.441,1.455,0.661c0.201,0.091,0.402,0.186,0.592,0.298c0.229,0.135,0.317,0.338,0.287,0.612
		c-0.068,0.613-0.33,1.144-0.72,1.598c-1.684,1.965-3.739,3.312-6.357,3.635c-1.905,0.235-3.794,0.113-5.648-0.427
		C18.072,52.397,17.43,51.915,16.758,51.485z M25.182,61.7c-0.058,0.26-0.144,0.512-0.26,0.754c-0.116,0.244-0.261,0.474-0.435,0.69
		c-0.175,0.217-0.379,0.405-0.613,0.567c-0.234,0.16-0.498,0.288-0.791,0.382s-0.617,0.141-0.971,0.141
		c-0.381,0-0.722-0.046-1.024-0.136c-0.302-0.092-0.569-0.215-0.802-0.371c-0.233-0.157-0.433-0.342-0.598-0.555
		c-0.166-0.212-0.301-0.44-0.404-0.686c-0.104-0.244-0.181-0.498-0.231-0.762s-0.075-0.526-0.075-0.787
		c0-0.252,0.028-0.508,0.086-0.77c0.057-0.26,0.143-0.512,0.259-0.756c0.116-0.242,0.261-0.473,0.436-0.688
		c0.174-0.215,0.378-0.403,0.613-0.564s0.499-0.287,0.793-0.381c0.294-0.092,0.619-0.138,0.973-0.138
		c0.363,0,0.693,0.047,0.991,0.141s0.562,0.222,0.793,0.382c0.231,0.162,0.431,0.35,0.6,0.564c0.168,0.217,0.308,0.445,0.419,0.688
		s0.193,0.495,0.246,0.756s0.079,0.516,0.079,0.765S25.239,61.443,25.182,61.7z M34.737,64.089h-2.5v-0.593
		c0.1-0.006,0.19-0.017,0.272-0.03c0.082-0.016,0.152-0.047,0.208-0.098c0.058-0.049,0.1-0.125,0.128-0.229
		c0.027-0.102,0.039-0.244,0.033-0.426l-0.075-1.907c-0.003-0.053-0.007-0.138-0.013-0.257s-0.013-0.252-0.02-0.398
		s-0.015-0.299-0.021-0.459c-0.008-0.159-0.014-0.309-0.02-0.445h-0.009l-1.841,4.93h-0.839l-1.208-2.961
		c-0.035-0.082-0.08-0.194-0.134-0.336c-0.055-0.143-0.111-0.303-0.169-0.482c-0.059-0.178-0.117-0.371-0.173-0.578
		c-0.058-0.205-0.109-0.418-0.156-0.635h-0.009c0.009,0.338,0.016,0.654,0.022,0.949c0.006,0.297,0.007,0.58,0.004,0.854
		l-0.013,1.625c0,0.082-0.001,0.163-0.002,0.242s-0.004,0.154-0.009,0.227c-0.004,0.072-0.009,0.137-0.013,0.195
		c-0.005,0.059-0.01,0.107-0.016,0.145l0.681-0.025v0.693h-2.052v-0.593c0.1-0.006,0.189-0.017,0.268-0.03
		c0.079-0.016,0.146-0.047,0.2-0.098c0.054-0.049,0.096-0.125,0.125-0.229c0.029-0.102,0.045-0.244,0.048-0.426l0.053-3.449
		c0-0.082,0.001-0.163,0.004-0.242s0.006-0.154,0.009-0.227c0.003-0.071,0.006-0.137,0.011-0.195
		c0.004-0.059,0.009-0.107,0.015-0.145l-0.681,0.025v-0.693h1.991l1.362,3.484c0.041,0.105,0.085,0.225,0.134,0.355
		c0.048,0.133,0.096,0.264,0.143,0.396c0.047,0.131,0.09,0.256,0.13,0.375c0.039,0.119,0.071,0.217,0.094,0.293h0.009
		c0.076-0.209,0.147-0.41,0.213-0.605c0.065-0.193,0.137-0.389,0.213-0.582l1.389-3.717H34.6v0.593
		c-0.103,0.006-0.194,0.017-0.275,0.03c-0.081,0.016-0.149,0.047-0.206,0.098c-0.058,0.049-0.1,0.125-0.128,0.229
		c-0.028,0.102-0.039,0.244-0.033,0.426l0.136,3.449c0.003,0.082,0.003,0.163,0.002,0.242s-0.003,0.154-0.006,0.227
		s-0.007,0.137-0.013,0.195s-0.012,0.107-0.018,0.145l0.677-0.025V64.089z M41.46,60.48c-0.103,0.238-0.259,0.455-0.468,0.648
		s-0.474,0.352-0.793,0.475s-0.699,0.191-1.138,0.206c-0.07,0.003-0.134,0.005-0.191,0.007c-0.058,0.002-0.112,0.002-0.163,0.002
		s-0.101,0-0.149,0c-0.048,0-0.099-0.002-0.151-0.004v0.795c0,0.164-0.003,0.322-0.009,0.473s-0.015,0.264-0.026,0.34l0.765-0.025
		v0.693h-2.672v-0.593c0.1-0.006,0.189-0.015,0.271-0.028c0.08-0.014,0.147-0.045,0.202-0.098c0.054-0.051,0.096-0.127,0.125-0.23
		c0.029-0.102,0.044-0.244,0.044-0.426v-3.449c0-0.082,0-0.163,0.002-0.242s0.004-0.154,0.007-0.227
		c0.003-0.071,0.007-0.137,0.011-0.195c0.005-0.059,0.01-0.107,0.016-0.145l-0.677,0.025v-0.693l2.562-0.018
		c0.39-0.004,0.743,0.033,1.061,0.109s0.59,0.194,0.815,0.354c0.226,0.16,0.4,0.364,0.523,0.613s0.185,0.548,0.185,0.896
		C41.612,59.995,41.562,60.241,41.46,60.48z M40.744,52.83c-0.316-0.367-0.569-0.789-0.835-1.197
		c-0.149-0.228-0.268-0.474-0.407-0.724c-0.663,0.22-1.249,0.542-1.826,0.886c-0.655,0.389-1.318,0.764-1.971,1.155
		c-0.223,0.134-0.404,0.095-0.583-0.065c-0.571-0.509-1.013-1.119-1.385-1.781c-0.673-1.199-0.983-2.5-1.05-3.865
		c-0.048-0.972-0.011-1.939,0.21-2.893c0.149-0.64,0.474-1.195,0.831-1.734c0.613-0.925,1.254-1.827,2.157-2.505
		c0.597-0.449,1.252-0.789,1.93-1.099c0.429-0.197,0.846-0.431,1.24-0.691c0.325-0.214,0.39-0.444,0.228-0.796
		c-0.128-0.277-0.305-0.551-0.521-0.765c-0.488-0.484-1.078-0.836-1.687-1.153c-0.245-0.128-0.489-0.14-0.755-0.063
		c-0.456,0.132-0.913,0.268-1.378,0.356c-0.501,0.095-0.987-0.008-1.433-0.259c-0.388-0.218-0.546-0.603-0.437-1.032
		c0.069-0.272,0.256-0.45,0.547-0.44c0.29,0.011,0.591,0.04,0.863,0.133c0.516,0.176,1.011,0.125,1.484-0.088
		c1.115-0.502,2.218-1.03,3.325-1.549c0.159-0.075,0.325-0.142,0.468-0.241c0.212-0.147,0.427-0.139,0.623-0.016
		c0.457,0.285,0.918,0.569,1.346,0.896c0.679,0.519,1.314,1.09,1.821,1.788c0.386,0.53,0.59,1.103,0.588,1.778
		c-0.017,3.969-0.001,7.938-0.017,11.908c-0.002,0.541,0.105,1.028,0.353,1.496c0.076,0.144,0.144,0.293,0.232,0.429
		c0.079,0.122,0.06,0.22-0.034,0.313c-0.111,0.11-0.214,0.233-0.341,0.321c-0.808,0.56-1.612,1.126-2.437,1.659
		C41.408,53.305,41.121,53.267,40.744,52.83z M48.143,64.089h-2.426v-0.593c0.161,0,0.274-0.032,0.338-0.095
		s0.097-0.149,0.097-0.258c0-0.062-0.009-0.131-0.026-0.205c-0.018-0.075-0.041-0.155-0.07-0.24l-0.18-0.494l-1.956,0.035
		l-0.145,0.424c-0.015,0.041-0.033,0.092-0.055,0.154c-0.022,0.062-0.047,0.127-0.075,0.196s-0.056,0.137-0.083,0.202
		c-0.028,0.066-0.052,0.127-0.073,0.18l0.642-0.027v0.721h-1.929V63.47c0.126,0,0.232-0.029,0.318-0.086s0.162-0.133,0.227-0.227
		s0.122-0.202,0.171-0.326c0.05-0.125,0.1-0.255,0.149-0.39l1.758-4.812h0.624l1.921,4.904c0.018,0.043,0.038,0.102,0.063,0.176
		c0.024,0.072,0.051,0.15,0.077,0.234s0.05,0.168,0.07,0.25c0.021,0.084,0.035,0.16,0.044,0.227l0.519-0.025V64.089z M48.415,53.869
		c-0.27-0.523-0.336-1.093-0.365-1.667c-0.112-2.217-0.211-4.435-0.32-6.652c-0.114-2.341-0.234-4.681-0.351-7.022
		c-0.024-0.481-0.046-0.962-0.07-1.464c0.044-0.008,0.075-0.016,0.107-0.018c1.594-0.071,3.188-0.141,4.807-0.212
		c-0.019,0.388-0.038,0.768-0.057,1.148c-0.073,1.47-0.145,2.94-0.219,4.41c-0.101,2.016-0.205,4.031-0.306,6.047
		c-0.068,1.365-0.128,2.731-0.201,4.096c-0.023,0.437-0.113,0.864-0.301,1.265c-0.267,0.567-0.712,0.865-1.341,0.876
		C49.177,54.686,48.705,54.431,48.415,53.869z M53.706,59.827c0-0.479-0.099-0.838-0.295-1.08c-0.196-0.24-0.469-0.36-0.817-0.357
		l-0.431,0.004v4.219c0,0.082-0.001,0.163-0.002,0.242c-0.002,0.079-0.004,0.154-0.007,0.227s-0.006,0.137-0.011,0.195
		c-0.004,0.059-0.01,0.107-0.016,0.145l0.721-0.025v0.693H50.22v-0.593c0.1-0.003,0.189-0.013,0.271-0.028
		c0.08-0.016,0.147-0.049,0.202-0.1c0.054-0.049,0.096-0.125,0.125-0.229c0.029-0.102,0.044-0.244,0.044-0.426v-4.311h-0.417
		c-0.343,0-0.613,0.115-0.811,0.347c-0.198,0.231-0.299,0.591-0.302,1.077H48.74l0.053-2.039h5.453l0.053,2.039H53.706z
		 M55.35,36.001c-0.251-0.454-0.547-0.871-1-1.231c0.19-0.202,0.346-0.416,0.546-0.574c0.674-0.532,1.339-1.081,2.054-1.554
		c0.849-0.561,1.229-0.487,1.952,0.24c0.455,0.458,0.908,0.917,1.345,1.391c0.142,0.154,0.263,0.15,0.4,0.038
		c0.307-0.251,0.616-0.502,0.907-0.771c0.407-0.376,0.8-0.766,1.195-1.154c0.101-0.099,0.177-0.108,0.298-0.02
		c0.551,0.4,1.08,0.819,1.467,1.391c0.277,0.409,0.473,0.847,0.556,1.34c0.057,0.342-0.013,0.641-0.223,0.898
		c-0.391,0.478-0.791,0.951-1.205,1.41c-0.213,0.236-0.455,0.448-0.699,0.653c-0.265,0.221-0.385,0.217-0.646-0.018
		c-0.173-0.156-0.317-0.345-0.484-0.508c-0.319-0.313-0.646-0.618-0.969-0.926c-0.021,0.013-0.043,0.027-0.064,0.04
		c0,5.502,0,11.004,0,16.517c-1.751,0-3.477,0-5.232,0c0-0.081,0-0.163,0-0.244c0-5.377-0.001-10.754,0.003-16.131
		C55.549,36.501,55.484,36.244,55.35,36.001z M58.381,58.381c-0.103,0.006-0.193,0.017-0.272,0.03
		c-0.079,0.016-0.146,0.047-0.2,0.098c-0.055,0.049-0.096,0.125-0.125,0.229c-0.029,0.102-0.044,0.244-0.044,0.426v3.449
		c0,0.082-0.001,0.163-0.002,0.242c-0.002,0.079-0.004,0.154-0.007,0.227s-0.007,0.137-0.011,0.195
		c-0.005,0.059-0.01,0.107-0.016,0.145l0.677-0.025v0.693h-2.584v-0.593c0.1-0.006,0.189-0.015,0.271-0.028
		c0.08-0.014,0.147-0.045,0.202-0.098c0.054-0.051,0.096-0.127,0.125-0.23c0.029-0.102,0.044-0.244,0.044-0.426v-3.449
		c0-0.082,0-0.163,0.002-0.242c0.001-0.079,0.004-0.154,0.007-0.227c0.003-0.071,0.007-0.137,0.011-0.195
		c0.005-0.059,0.01-0.107,0.016-0.145l-0.677,0.025v-0.693h2.584V58.381z M65.263,63.074c-0.11,0.223-0.263,0.409-0.457,0.56
		c-0.195,0.152-0.426,0.266-0.692,0.342s-0.558,0.113-0.874,0.113h-3.063v-0.593c0.1-0.006,0.189-0.015,0.271-0.028
		c0.08-0.014,0.147-0.045,0.202-0.098c0.054-0.051,0.096-0.127,0.125-0.23c0.029-0.102,0.044-0.244,0.044-0.426v-3.449
		c0-0.082,0.001-0.163,0.002-0.242c0.002-0.079,0.004-0.154,0.007-0.227c0.003-0.071,0.007-0.137,0.011-0.195
		c0.005-0.059,0.01-0.107,0.016-0.145l-0.677,0.025v-0.693l2.496-0.018c0.349,0,0.664,0.031,0.947,0.094
		c0.282,0.063,0.524,0.158,0.725,0.285c0.201,0.129,0.355,0.289,0.464,0.482s0.163,0.422,0.163,0.686
		c0,0.152-0.025,0.293-0.075,0.422s-0.127,0.253-0.23,0.373c-0.104,0.12-0.237,0.229-0.4,0.328
		c-0.162,0.098-0.356,0.178-0.582,0.238v0.01c0.299,0.047,0.558,0.122,0.775,0.227c0.219,0.104,0.399,0.227,0.543,0.369
		c0.144,0.142,0.251,0.3,0.321,0.475c0.07,0.174,0.105,0.354,0.105,0.542C65.428,62.594,65.373,62.852,65.263,63.074z
		 M71.725,64.089h-4.799v-0.588c0.1-0.006,0.189-0.016,0.271-0.029c0.08-0.014,0.147-0.045,0.202-0.097
		c0.054-0.052,0.096-0.128,0.125-0.231c0.029-0.102,0.044-0.244,0.044-0.426v-3.453c0-0.082,0-0.162,0.002-0.242
		c0.001-0.078,0.004-0.154,0.007-0.227c0.003-0.071,0.007-0.137,0.011-0.195c0.005-0.059,0.01-0.107,0.016-0.145l-0.677,0.025
		v-0.693h2.584v0.593c-0.103,0.006-0.193,0.017-0.272,0.03c-0.079,0.016-0.146,0.047-0.2,0.098
		c-0.055,0.049-0.096,0.126-0.125,0.229s-0.044,0.244-0.044,0.426v3.453c0,0.082-0.001,0.162-0.002,0.24
		c-0.002,0.078-0.004,0.151-0.007,0.222c-0.003,0.071-0.007,0.134-0.011,0.191c-0.005,0.058-0.01,0.104-0.016,0.144l1.208-0.005
		c0.354,0,0.633-0.122,0.835-0.368c0.202-0.245,0.304-0.615,0.304-1.108h0.598L71.725,64.089z M78.017,64.089h-4.751v-0.588
		c0.1-0.006,0.189-0.017,0.271-0.031c0.08-0.015,0.147-0.047,0.202-0.097c0.054-0.05,0.096-0.126,0.125-0.229
		c0.029-0.102,0.044-0.244,0.044-0.426v-3.453c0-0.082,0.001-0.162,0.002-0.242c0.002-0.078,0.004-0.154,0.007-0.227
		c0.003-0.071,0.007-0.137,0.011-0.195c0.005-0.059,0.01-0.107,0.016-0.145l-0.677,0.025v-0.693h4.505l0.053,1.744H77.23
		c0-0.243-0.034-0.441-0.104-0.594c-0.068-0.152-0.155-0.271-0.261-0.355s-0.223-0.143-0.352-0.172s-0.255-0.042-0.378-0.039
		l-0.325,0.009c-0.094,0.003-0.179,0.013-0.253,0.028c-0.075,0.017-0.138,0.051-0.189,0.104c-0.051,0.053-0.091,0.131-0.118,0.232
		c-0.028,0.104-0.042,0.242-0.042,0.418v1.35h1.06l-0.04-0.778h0.694v2.188H76.33c0-0.188-0.023-0.336-0.07-0.443
		c-0.047-0.109-0.11-0.189-0.189-0.242s-0.172-0.084-0.279-0.094c-0.106-0.011-0.222-0.015-0.345-0.012l-0.237,0.004v1.48
		c0,0.082-0.001,0.162-0.002,0.239c-0.002,0.078-0.004,0.151-0.007,0.223c-0.003,0.07-0.007,0.134-0.011,0.191
		c-0.005,0.058-0.01,0.104-0.016,0.144l1.209-0.005c0.132,0,0.264-0.022,0.396-0.065c0.132-0.045,0.249-0.117,0.352-0.219
		s0.186-0.235,0.25-0.401s0.097-0.371,0.097-0.615h0.594L78.017,64.089z M79.576,52.057c-0.329,0.333-0.651,0.68-1.016,0.969
		c-0.628,0.497-1.275,0.97-1.937,1.421c-0.487,0.332-0.616,0.3-1.008-0.146c-0.711-0.809-1.324-1.679-1.563-2.756
		c-0.043-0.195-0.07-0.399-0.07-0.599c-0.004-4.263-0.002-8.526-0.004-12.789c0-0.695-0.255-1.309-0.629-1.878
		c-0.076-0.116-0.193-0.214-0.311-0.29c-0.249-0.16-0.506-0.137-0.714,0.073c-0.267,0.269-0.446,0.573-0.445,0.982
		c0.007,5.28,0.005,10.56,0.005,15.84c0,0.089,0,0.179,0,0.279c-1.747,0-3.472,0-5.228,0c0-0.082,0-0.163,0-0.245
		c0-5.332-0.003-10.664,0.006-15.996c0.001-0.509-0.147-0.944-0.444-1.343c-0.144-0.194-0.282-0.392-0.432-0.58
		c-0.091-0.115-0.07-0.204,0.035-0.281c0.178-0.131,0.35-0.276,0.543-0.381c1.024-0.555,2.048-1.111,3.083-1.644
		c0.491-0.253,0.758-0.194,1.118,0.231c0.251,0.296,0.454,0.634,0.676,0.954c0.182,0.262,0.351,0.534,0.545,0.786
		c0.205,0.267,0.297,0.306,0.603,0.173c0.649-0.282,1.294-0.579,1.926-0.899c0.836-0.424,1.659-0.873,2.484-1.319
		c0.178-0.097,0.344-0.095,0.492,0.022c0.183,0.144,0.365,0.297,0.514,0.474c0.754,0.893,1.145,1.91,1.14,3.098
		c-0.016,4.107,0.002,8.213-0.012,12.32c-0.003,0.872,0.133,1.696,0.535,2.472c0.069,0.133,0.107,0.284,0.19,0.406
		C79.828,51.657,79.759,51.871,79.576,52.057z"/>
	<path d="M23.417,59.091c-0.146-0.248-0.331-0.441-0.554-0.58s-0.486-0.209-0.791-0.209c-0.214,0-0.404,0.036-0.569,0.107
		c-0.166,0.072-0.311,0.171-0.435,0.297c-0.125,0.126-0.229,0.271-0.314,0.438s-0.155,0.342-0.209,0.529s-0.093,0.381-0.116,0.578
		s-0.035,0.392-0.035,0.582s0.013,0.39,0.04,0.598s0.069,0.414,0.127,0.617c0.059,0.204,0.135,0.398,0.229,0.582
		c0.094,0.186,0.207,0.348,0.341,0.486c0.133,0.139,0.289,0.25,0.468,0.334s0.381,0.125,0.606,0.125
		c0.208,0,0.393-0.035,0.554-0.107s0.302-0.17,0.424-0.293s0.225-0.266,0.31-0.43s0.154-0.338,0.207-0.521
		c0.053-0.183,0.091-0.371,0.114-0.566s0.035-0.383,0.035-0.564c0-0.404-0.035-0.777-0.105-1.119
		C23.672,59.633,23.564,59.339,23.417,59.091z"/>
	<path d="M45.027,59.79c-0.062-0.217-0.107-0.407-0.136-0.574h-0.009c-0.023,0.103-0.06,0.255-0.11,0.457s-0.123,0.445-0.22,0.729
		l-0.404,1.169h1.499l-0.409-1.129C45.159,60.222,45.089,60.005,45.027,59.79z"/>
	<path d="M19.884,40.285c0.452-0.661,0.887-1.335,1.371-1.972c0.614-0.809,1.282-1.577,1.904-2.381
		c0.738-0.955,1.413-1.951,1.892-3.068c0.379-0.886,0.544-1.794,0.296-2.743c-0.221-0.846-0.643-1.557-1.465-1.947
		c-1.121-0.532-2.478-0.219-3.383,0.764c-0.673,0.73-1.06,1.617-1.367,2.543c-0.631,1.903-0.85,3.873-0.921,5.864
		c-0.028,0.781-0.06,1.563-0.046,2.344c0.012,0.706,0.084,1.411,0.129,2.116c0.027,0.004,0.054,0.008,0.081,0.011
		C18.979,41.408,19.472,40.887,19.884,40.285z"/>
</g>
<g>
</g>
<g>
</g>
<g>
</g>
<g>
</g>
<g>
</g>
<g>
</g>
</svg>
